<svg width="20" height="20" viewBox="0 0 20 20" fill="none" xmlns="http://www.w3.org/2000/svg">
<path d="M10.0333 1.66667C5.48331 1.66667 1.77498 5.375 1.77498 9.925C1.77498 11.3833 2.15831 12.8 2.87498 14.05L1.70831 18.3333L6.08331 17.1833C7.29165 17.8417 8.64998 18.1917 10.0333 18.1917C14.5833 18.1917 18.2916 14.4833 18.2916 9.93333C18.2916 7.725 17.4333 5.65 15.875 4.09167C15.111 3.31994 14.201 2.70806 13.198 2.29171C12.1951 1.87536 11.1192 1.66288 10.0333 1.66667ZM10.0416 3.05833C11.875 3.05833 13.5916 3.775 14.8916 5.075C15.5297 5.71279 16.0355 6.47026 16.3801 7.30397C16.7247 8.13767 16.9014 9.03121 16.9 9.93333C16.9 13.7167 13.8166 16.7917 10.0333 16.7917C8.79998 16.7917 7.59165 16.4667 6.54165 15.8333L6.29165 15.6917L3.69165 16.375L4.38331 13.8417L4.21665 13.575C3.52826 12.4822 3.16416 11.2165 3.16665 9.925C3.17498 6.14167 6.24998 3.05833 10.0416 3.05833ZM7.10831 6.10833C6.97498 6.10833 6.74998 6.15833 6.55831 6.36667C6.37498 6.575 5.83331 7.08333 5.83331 8.09167C5.83331 9.10833 6.57498 10.0833 6.66665 10.225C6.78331 10.3667 8.13331 12.45 10.2083 13.3333C10.7 13.5583 11.0833 13.6833 11.3833 13.775C11.875 13.9333 12.325 13.9083 12.6833 13.8583C13.0833 13.8 13.9 13.3583 14.075 12.875C14.25 12.3917 14.25 11.9833 14.2 11.8917C14.1416 11.8083 14.0083 11.7583 13.8 11.6667C13.5916 11.55 12.575 11.05 12.3916 10.9833C12.2 10.9167 12.0833 10.8833 11.925 11.0833C11.7916 11.2917 11.3916 11.7583 11.275 11.8917C11.15 12.0333 11.0333 12.05 10.8333 11.95C10.6166 11.8417 9.94998 11.625 9.16665 10.925C8.54998 10.375 8.14165 9.7 8.01665 9.49167C7.91665 9.29167 8.00831 9.16667 8.10831 9.075C8.19998 8.98333 8.33331 8.83333 8.41665 8.70833C8.52498 8.59167 8.55831 8.5 8.62498 8.36667C8.69165 8.225 8.65831 8.10833 8.60831 8.00833C8.55831 7.91667 8.14165 6.88333 7.96665 6.475C7.79998 6.075 7.63331 6.125 7.49998 6.11667C7.38331 6.11667 7.24998 6.10833 7.10831 6.10833Z" fill="white"/>
</svg>
